<svg width="84" height="18" viewBox="0 0 84 18" fill="none" xmlns="http://www.w3.org/2000/svg">
<path d="M14.0749 6.55651e-07C13.9582 1.18333 13.8999 2.25 13.8999 3.2C13.8999 4.03333 13.9249 4.71667 13.9749 5.25H13.3999C13.2666 3.96667 13.0999 3.01667 12.8999 2.4C12.6999 1.76667 12.3499 1.30833 11.8499 1.025C11.3499 0.724999 10.5832 0.574999 9.5499 0.574999H8.1999V14.8C8.1999 15.5 8.26657 16.0083 8.3999 16.325C8.53324 16.6417 8.76657 16.8583 9.0999 16.975C9.43324 17.0917 9.9749 17.1667 10.7249 17.2V17.7C9.85824 17.65 8.63324 17.625 7.0499 17.625C5.38324 17.625 4.1499 17.65 3.3499 17.7V17.2C4.0999 17.1667 4.64157 17.0917 4.9749 16.975C5.30824 16.8583 5.54157 16.6417 5.6749 16.325C5.80824 16.0083 5.8749 15.5 5.8749 14.8V0.574999H4.5249C3.49157 0.574999 2.7249 0.724999 2.2249 1.025C1.7249 1.30833 1.3749 1.76667 1.1749 2.4C0.974902 3.01667 0.808236 3.96667 0.674902 5.25H0.0999023C0.149902 4.71667 0.174902 4.03333 0.174902 3.2C0.174902 2.25 0.116569 1.18333 -9.76305e-05 6.55651e-07C1.38324 0.05 3.73324 0.0749997 7.0499 0.0749997C10.3499 0.0749997 12.6916 0.05 14.0749 6.55651e-07ZM21.1022 3C20.5022 3.03333 20.0606 3.1 19.7772 3.2C19.5106 3.3 19.3272 3.49167 19.2272 3.775C19.1272 4.05833 19.0772 4.51667 19.0772 5.15V15.05C19.0772 15.6833 19.1272 16.1417 19.2272 16.425C19.3272 16.7083 19.5106 16.9 19.7772 17C20.0606 17.1 20.5022 17.1667 21.1022 17.2V17.7C20.3356 17.65 19.2772 17.625 17.9272 17.625C16.4939 17.625 15.4272 17.65 14.7272 17.7V17.2C15.3272 17.1667 15.7606 17.1 16.0272 17C16.3106 16.9 16.5022 16.7083 16.6022 16.425C16.7022 16.1417 16.7522 15.6833 16.7522 15.05V5.15C16.7522 4.51667 16.7022 4.05833 16.6022 3.775C16.5022 3.49167 16.3106 3.3 16.0272 3.2C15.7606 3.1 15.3272 3.03333 14.7272 3V2.5C15.4272 2.55 16.4939 2.575 17.9272 2.575C19.2606 2.575 20.3189 2.55 21.1022 2.5V3ZM28.8989 2.5C31.4989 2.5 33.4489 3.13333 34.7489 4.4C36.0656 5.65 36.7239 7.48333 36.7239 9.9C36.7239 11.4667 36.4073 12.8417 35.7739 14.025C35.1406 15.1917 34.2156 16.1 32.9989 16.75C31.7989 17.3833 30.3573 17.7 28.6739 17.7L27.2239 17.675C26.2906 17.6417 25.6073 17.625 25.1739 17.625C23.8073 17.625 22.7739 17.65 22.0739 17.7V17.2C22.6739 17.1667 23.1073 17.1 23.3739 17C23.6573 16.9 23.8489 16.7083 23.9489 16.425C24.0489 16.1417 24.0989 15.6833 24.0989 15.05V5.15C24.0989 4.51667 24.0489 4.05833 23.9489 3.775C23.8489 3.49167 23.6573 3.3 23.3739 3.2C23.1073 3.1 22.6739 3.03333 22.0739 3V2.5C22.6573 2.55 23.4656 2.575 24.4989 2.575L26.6239 2.55C27.7573 2.51667 28.5156 2.5 28.8989 2.5ZM28.2739 2.95C27.7573 2.95 27.3656 3.00833 27.0989 3.125C26.8489 3.24167 26.6739 3.45 26.5739 3.75C26.4739 4.05 26.4239 4.5 26.4239 5.1V15.1C26.4239 15.7 26.4739 16.15 26.5739 16.45C26.6739 16.75 26.8489 16.9583 27.0989 17.075C27.3656 17.1917 27.7656 17.25 28.2989 17.25C29.8156 17.25 31.0073 16.9833 31.8739 16.45C32.7406 15.9 33.3489 15.1 33.6989 14.05C34.0489 13 34.2239 11.65 34.2239 10C34.2239 7.56667 33.7739 5.78333 32.8739 4.65C31.9739 3.51667 30.4406 2.95 28.2739 2.95ZM48.7481 2.6C49.6981 2.6 50.3398 2.56667 50.6731 2.5V3.025C50.3898 3.09167 50.1315 3.25 49.8981 3.5C49.6648 3.75 49.3898 4.15833 49.0731 4.725L45.1481 11.75V15.05C45.1481 15.6833 45.1981 16.1417 45.2981 16.425C45.3981 16.7083 45.5815 16.9 45.8481 17C46.1315 17.1 46.5731 17.1667 47.1731 17.2V17.7C46.4065 17.65 45.3481 17.625 43.9981 17.625C42.5648 17.625 41.4981 17.65 40.7981 17.7V17.2C41.3981 17.1667 41.8315 17.1 42.0981 17C42.3815 16.9 42.5731 16.7083 42.6731 16.425C42.7731 16.1417 42.8231 15.6833 42.8231 15.05V12.45L37.9981 4.425C37.6815 3.89167 37.4148 3.54167 37.1981 3.375C36.9981 3.19167 36.7815 3.075 36.5481 3.025V2.5C37.6148 2.56667 38.3481 2.6 38.7481 2.6C39.8981 2.6 41.0648 2.56667 42.2481 2.5V3.025C41.6815 3.025 41.2481 3.075 40.9481 3.175C40.6481 3.25833 40.4981 3.45833 40.4981 3.775C40.4981 4.05833 40.6398 4.45 40.9231 4.95L44.6981 11.25L47.7981 5.8C48.1648 5.13333 48.3481 4.6 48.3481 4.2C48.3481 3.5 47.7731 3.10833 46.6231 3.025V2.5C47.2398 2.56667 47.9481 2.6 48.7481 2.6ZM70.5292 0.5C69.9292 0.533333 69.4875 0.6 69.2042 0.700001C68.9375 0.8 68.7542 0.991667 68.6542 1.275C68.5542 1.55833 68.5042 2.01667 68.5042 2.65V15.05C68.5042 15.6833 68.5542 16.1417 68.6542 16.425C68.7542 16.7083 68.9375 16.9 69.2042 17C69.4875 17.1 69.9292 17.1667 70.5292 17.2V17.7C69.7625 17.65 68.7042 17.625 67.3542 17.625C65.9209 17.625 64.8542 17.65 64.1542 17.7V17.2C64.7542 17.1667 65.1875 17.1 65.4542 17C65.7375 16.9 65.9292 16.7083 66.0292 16.425C66.1292 16.1417 66.1792 15.6833 66.1792 15.05V1.65L60.1542 17.825H59.7542L53.4542 1.6V14.8C53.4542 15.45 53.5042 15.9333 53.6042 16.25C53.7209 16.5667 53.9375 16.8 54.2542 16.95C54.5709 17.0833 55.0625 17.1667 55.7292 17.2V17.7C55.1292 17.65 54.2792 17.625 53.1792 17.625C52.1792 17.625 51.4042 17.65 50.8542 17.7V17.2C51.4375 17.1667 51.8709 17.0833 52.1542 16.95C52.4375 16.8 52.6292 16.5667 52.7292 16.25C52.8292 15.9167 52.8792 15.4333 52.8792 14.8V2.65C52.8792 2.01667 52.8292 1.55833 52.7292 1.275C52.6292 0.991667 52.4375 0.8 52.1542 0.700001C51.8875 0.6 51.4542 0.533333 50.8542 0.5V6.55651e-07C51.4042 0.05 52.1792 0.0749997 53.1792 0.0749997C54.0459 0.0749997 54.7542 0.05 55.3042 6.55651e-07L60.8042 14.475L66.1792 0.0749997H67.3542C68.7042 0.0749997 69.7625 0.05 70.5292 6.55651e-07V0.5ZM83.8065 14.75C83.8065 15.6167 83.8649 16.6 83.9815 17.7C82.8982 17.65 81.0732 17.625 78.5065 17.625C75.4232 17.625 73.0899 17.65 71.5065 17.7V17.2C72.1065 17.1667 72.5399 17.1 72.8065 17C73.0899 16.9 73.2815 16.7083 73.3815 16.425C73.4815 16.1417 73.5315 15.6833 73.5315 15.05V5.15C73.5315 4.51667 73.4815 4.05833 73.3815 3.775C73.2815 3.49167 73.0899 3.3 72.8065 3.2C72.5399 3.1 72.1065 3.03333 71.5065 3V2.5C73.0899 2.55 75.4232 2.575 78.5065 2.575C80.8399 2.575 82.4982 2.55 83.4815 2.5C83.3649 3.5 83.3065 4.4 83.3065 5.2C83.3065 5.85 83.3315 6.36667 83.3815 6.75H82.8065C82.6899 5.38333 82.3982 4.43333 81.9315 3.9C81.4815 3.35 80.7399 3.075 79.7065 3.075H77.8815C77.2815 3.075 76.8399 3.125 76.5565 3.225C76.2899 3.30833 76.1065 3.49167 76.0065 3.775C75.9065 4.05833 75.8565 4.51667 75.8565 5.15V9.8H77.9315C78.4649 9.8 78.8732 9.66667 79.1565 9.4C79.4399 9.11667 79.6315 8.81667 79.7315 8.5C79.8315 8.16667 79.9232 7.75 80.0065 7.25H80.5815C80.5315 7.81667 80.5065 8.43333 80.5065 9.1V10.05C80.5065 10.7 80.5565 11.6333 80.6565 12.85H80.0815C79.9815 12.05 79.7899 11.425 79.5065 10.975C79.2232 10.525 78.6982 10.3 77.9315 10.3H75.8565V15.05C75.8565 15.6833 75.9065 16.1417 76.0065 16.425C76.1065 16.7083 76.2899 16.9 76.5565 17C76.8399 17.0833 77.2815 17.125 77.8815 17.125H79.7065C80.5399 17.125 81.1982 16.9917 81.6815 16.725C82.1649 16.4583 82.5315 16.0333 82.7815 15.45C83.0315 14.85 83.2065 14.0167 83.3065 12.95H83.8815C83.8315 13.4 83.8065 14 83.8065 14.75Z" fill="black"/>
</svg>
